<svg width="411" height="186" viewBox="0 0 411 186" fill="none" xmlns="http://www.w3.org/2000/svg">
<path d="M120.825 184.593C120.661 184.328 122.628 182.18 125.969 178.973L131.379 173.781L131.373 163.231C131.368 154.7 131.464 152.6 131.876 152.261C132.596 151.663 170.31 151.667 171.01 152.265C171.703 152.84 171.763 183.889 171.073 184.579C170.444 185.207 121.215 185.22 120.809 184.592L120.825 184.593ZM185.239 184.58C184.909 184.25 184.797 180.158 184.797 168.439C184.797 156.721 184.909 152.631 185.239 152.299C185.572 151.966 190.494 151.857 205.123 151.857C224.167 151.857 224.576 151.872 224.96 152.591C225.225 153.087 225.319 158.358 225.249 168.82C225.16 182.112 225.067 184.363 224.592 184.662C223.72 185.213 185.789 185.134 185.237 184.58L185.239 184.58ZM239.04 184.779C238.681 184.633 238.579 181.017 238.579 168.447C238.579 154.065 238.643 152.277 239.162 152.078C239.483 151.955 248.323 151.855 258.803 151.855C273.134 151.855 277.973 151.964 278.304 152.297C278.627 152.62 278.751 155.629 278.764 163.444L278.781 174.149L284.11 179.113C287.041 181.843 289.383 184.25 289.313 184.456C289.184 184.844 239.971 185.157 239.05 184.776L239.04 184.779ZM0.0309258 142.512C-0.0747969 142.237 0.722959 139.293 1.80377 135.971C2.88458 132.649 5.20283 125.454 6.95541 119.982C8.70763 114.51 10.9463 107.545 11.9265 104.505C12.9089 101.465 15.3174 94.0029 17.2771 87.9226C19.2368 81.8424 22.4766 71.8929 24.4739 65.8126C27.3836 56.9502 33.749 37.3202 36.8408 27.6729C37.133 26.7608 37.5295 25.7659 37.7218 25.4619C38.0283 24.9773 42.8477 24.8973 76.7828 24.8118C103.271 24.7454 115.733 24.8368 116.212 25.1012C116.896 25.4673 116.935 25.9215 116.935 33.7241C116.935 41.9527 116.935 41.9601 117.764 42.1812C118.22 42.3034 128.789 42.4063 141.256 42.4099C165.19 42.4168 167.869 42.5695 172.597 44.1978C177.612 45.9254 181.374 49.0178 183.349 53.0382L184.554 55.4876L184.738 49.1641C184.839 45.6866 185.008 42.7559 185.113 42.6527C185.408 42.3603 238.804 42.1962 239.099 42.4867C239.241 42.6273 240.595 47.1887 242.11 52.6204C246.543 68.5286 250.298 81.5661 250.504 81.7762C250.88 82.152 251.112 81.5037 252.937 74.9847C253.952 71.3609 256.109 63.716 257.731 57.9968C259.354 52.2777 260.929 46.647 261.231 45.49C261.533 44.3303 261.96 43.1647 262.18 42.8994C262.495 42.5191 265.498 42.4133 276.444 42.3964C284.072 42.3847 290.974 42.2577 291.785 42.1141L293.259 41.853L293.358 33.5838C293.431 27.5367 293.579 25.2373 293.911 25.0236C294.596 24.5799 371.812 24.835 372.254 25.2823C372.455 25.485 373.803 29.2989 375.251 33.7578C376.699 38.2166 380.948 51.3168 384.696 62.8693C388.444 74.4218 392.177 85.8637 392.991 88.2958C393.805 90.7279 394.937 94.2102 395.507 96.0343C396.078 97.8584 399.638 108.947 403.419 120.672C407.2 132.398 410.207 142.226 410.1 142.506C409.935 142.935 405.847 143.017 384.559 143.012C370.619 143.009 358.989 142.864 358.716 142.691C358.434 142.512 356.93 137.123 355.247 130.261C353.612 123.599 352.095 118.023 351.875 117.872C351.655 117.721 348.161 117.638 344.107 117.688L336.737 117.779L336.64 130.105C336.567 139.402 336.431 142.501 336.087 142.719C335.837 142.878 322.854 143.011 307.237 143.014C285.64 143.018 278.738 142.914 278.402 142.577C278.068 142.242 277.96 136.486 277.96 118.919C277.96 105.539 277.823 95.8512 277.636 96.0539C277.371 96.34 267.049 132.182 265.17 139.316C264.877 140.431 264.398 141.715 264.104 142.172L263.571 143.001H251.248C239.692 143.001 238.904 142.959 238.565 142.328C238.172 141.594 236.815 136.719 230.236 112.417C227.85 103.602 225.755 96.2286 225.582 96.0369C225.303 95.7275 225.063 126.357 225.259 137.346C225.303 139.827 225.168 141.76 224.918 142.228L224.503 143.003H183.636C143.249 143.003 142.77 142.994 142.364 142.272C142.104 141.785 141.968 135.576 141.958 123.754C141.941 104.607 141.892 104.065 140.033 102.687C139.128 102.017 138.561 101.93 135.633 102.018C133.783 102.074 132.232 102.156 132.187 102.202C132.141 102.248 132.015 111.282 131.908 122.282C131.8 133.278 131.611 142.442 131.488 142.641C131.131 143.218 74.2968 143.13 73.9652 142.552C73.8117 142.304 73.631 136.789 73.5635 130.3C73.4961 123.811 73.3682 118.29 73.2795 118.036C73.1579 117.688 71.3088 117.576 65.729 117.576C58.4179 117.576 58.3369 117.584 57.9831 118.405C57.7881 118.861 56.3768 124.363 54.8472 130.635C53.3175 136.903 51.8848 142.254 51.6637 142.519C51.0572 143.25 0.2948 143.234 0 142.503L0.0309258 142.512ZM184.686 83.8102L184.586 77.2472L183.694 79.044C181.727 83.009 176.892 86.8341 171.781 88.4702C171.021 88.7134 170.404 89.0241 170.411 89.1601C170.418 89.2963 171.898 90.11 173.7 90.9679C178.276 93.1479 180.989 95.7252 183.023 99.834L184.586 102.989L184.686 96.6844C184.742 93.2157 184.742 87.424 184.686 83.8127V83.8102ZM346.495 90.8706C346.562 90.8089 345.95 88.2985 345.135 85.2915C344.319 82.2853 343.222 78.0837 342.695 75.9574C342.169 73.8293 341.343 70.7616 340.86 69.1402C340.377 67.5188 339.454 64.1212 338.809 61.5859C338.164 59.0506 337.493 56.7291 337.317 56.4269C336.872 55.6575 336.804 60.4325 336.932 83.4011L336.975 91.0291L339.094 91.1396C341.27 91.2531 346.276 91.0713 346.493 90.8707L346.495 90.8706ZM73.5098 73.5622C73.5098 63.1742 73.3722 56.0584 73.1714 56.0584C72.9853 56.0584 72.5884 57.0946 72.2892 58.3615C71.9901 59.6284 70.9585 63.6495 69.9968 67.2977C69.035 70.9458 68.1193 74.5129 67.9612 75.2204C67.8031 75.9279 66.8314 79.4913 65.8014 83.1321C64.7714 86.7744 63.9287 90.0489 63.9287 90.41C63.9287 91.0048 64.3731 91.0655 68.7192 91.0655H73.5097L73.5098 73.5622ZM138.808 78.8907C140.969 78.2908 141.787 76.8024 141.98 73.1237C142.293 67.1613 140.725 65.4883 135.038 65.7131L132.282 65.8231L132.18 72.0728C132.124 75.5109 132.161 78.5363 132.261 78.798C132.485 79.3835 136.808 79.4436 138.805 78.8886L138.808 78.8907ZM131.803 32.7545C131.479 32.4311 131.361 29.4697 131.361 21.7326V11.153L125.962 6.01613C122.694 2.90451 120.667 0.713413 120.825 0.455463C121.209 -0.16546 170.462 -0.144832 171.089 0.476459C171.419 0.806561 171.531 4.89847 171.531 16.6168C171.531 28.3351 171.419 32.4254 171.089 32.7571C170.756 33.0897 165.889 33.1993 151.448 33.1993C137.006 33.1993 132.138 33.0897 131.807 32.7571L131.803 32.7545ZM185.235 32.7545C184.905 32.4244 184.793 28.3325 184.793 16.6142C184.793 4.89588 184.905 0.805533 185.235 0.473883C185.568 0.141128 190.49 0.0316789 205.12 0.0316789C223.965 0.0316789 224.576 0.0535755 224.945 0.744366C225.356 1.51269 225.505 31.5657 225.103 32.6122C224.903 33.1337 222.812 33.1952 205.277 33.1952C190.523 33.1952 185.566 33.0858 185.235 32.753L185.235 32.7545ZM239.036 32.8905C238.672 32.659 238.592 29.1134 238.668 16.4075L238.764 0.219291L263.8 0.12458C281.27 0.058471 288.954 0.149452 289.226 0.425605C289.501 0.70515 289.237 1.15303 288.326 1.95083C287.617 2.57212 285.171 4.90841 282.891 7.14299L278.745 11.2075V21.7614C278.745 29.4778 278.626 32.4368 278.303 32.7574C277.789 33.2711 239.831 33.4023 239.021 32.8934L239.036 32.8905Z" fill="white"/>
</svg>
