<svg width="458" height="120" viewBox="0 0 458 120" fill="none" xmlns="http://www.w3.org/2000/svg">
<path d="M150.187 103.333V91.1734H128.587C126.827 91.1734 125.787 90.1334 125.787 88.3734V47.3334H111.547V91.7334C111.547 99.2534 115.627 103.333 123.147 103.333H150.187Z" fill="white"/>
<path d="M154.084 57.4934H168.324V44.6934H154.084V57.4934ZM167.764 103.333V63.0134H154.564V103.333H167.764Z" fill="white"/>
<path d="M188.154 103.333V80.7734C188.154 76.2934 190.634 73.4134 194.394 73.4134C198.154 73.4134 200.634 76.2934 200.634 80.7734V103.333H213.834V80.7734C213.834 76.2934 216.314 73.4134 220.074 73.4134C223.834 73.4134 226.314 76.2934 226.314 80.7734V103.333H239.514V76.5334C239.514 69.0934 233.674 62.3734 224.874 62.3734C218.234 62.3734 213.354 65.6534 211.194 69.1734C209.034 64.7734 205.434 62.3734 199.274 62.3734C194.154 62.3734 190.554 64.6134 188.154 67.8134V63.0134H174.954V103.333H188.154Z" fill="white"/>
<path d="M265.791 93.3334C260.991 93.3334 258.191 90.7734 257.391 86.2934H285.151C285.231 85.3334 285.311 84.2134 285.311 82.3734C285.311 73.8934 280.271 62.3734 264.991 62.3734C250.511 62.3734 244.751 73.6534 244.751 83.1734C244.751 92.6934 251.311 103.973 265.791 103.973C275.711 103.973 283.631 98.2934 285.311 89.3334H272.591C271.871 92.0534 269.391 93.3334 265.791 93.3334ZM264.991 71.7334C269.551 71.7334 272.031 75.0134 272.271 78.4534H257.391C258.271 73.5734 260.751 71.7334 264.991 71.7334Z" fill="white"/>
<path d="M304.421 103.333V45.0934H291.221V103.333H304.421Z" fill="white"/>
<path d="M311.896 57.4934H326.136V44.6934H311.896V57.4934ZM325.576 103.333V63.0134H312.376V103.333H325.576Z" fill="white"/>
<path d="M360.367 66.2134C358.207 63.8934 354.847 62.3734 350.127 62.3734C338.767 62.3734 331.487 70.2934 331.487 83.1734C331.487 96.0534 338.767 103.973 350.367 103.973C354.527 103.973 358.287 102.533 360.447 99.8934V104.373C360.447 107.413 358.527 109.573 355.887 109.573H337.327V119.653H358.287C367.567 119.653 373.567 114.293 373.567 105.973V63.0134H360.367V66.2134ZM352.687 92.7734C347.647 92.7734 344.367 89.0134 344.367 83.1734C344.367 77.3334 347.647 73.5734 352.687 73.5734C357.807 73.5734 361.087 77.3334 361.087 83.1734C361.087 89.0134 357.807 92.7734 352.687 92.7734Z" fill="white"/>
<path d="M395.437 103.333V81.0934C395.437 77.0934 398.237 74.0534 402.237 74.0534C406.237 74.0534 409.037 77.0934 409.037 81.0934V103.333H422.237V77.9734C422.237 69.0134 416.317 62.3734 407.277 62.3734C401.997 62.3734 397.757 64.5334 395.437 67.6534V45.0934H382.237V103.333H395.437Z" fill="white"/>
<path d="M433.675 63.0134H426.235V73.8934H433.675V87.8134C433.675 97.8134 440.235 103.333 450.155 103.333H457.035V91.4934H452.155C448.715 91.4934 446.875 89.8934 446.875 86.2134V73.8934H457.035V63.0134H446.875V51.5734H433.675V63.0134Z" fill="white"/>
<path fill-rule="evenodd" clip-rule="evenodd" d="M73.5 48.1667C73.5 47.2462 72.7538 46.5 71.8333 46.5L45 46.5C29.2599 46.5 16.5 59.2599 16.5 75L16.5 101.833C16.5 102.754 17.2462 103.5 18.1667 103.5L45 103.5C60.7401 103.5 73.5 90.7401 73.5 75L73.5 48.1667ZM90 39C90 34.0294 85.9706 30 81 30L45 30C20.1472 30 -8.51006e-06 50.1472 -9.59641e-06 75L-1.117e-05 111C-1.13873e-05 115.971 4.02942 120 8.99999 120L45 120C69.8528 120 90 99.8528 90 75L90 39Z" fill="#42A5F5"/>
<path d="M120 2.33334C120 1.04467 118.955 0 117.667 0H108.333C101.89 0 96.6667 5.22334 96.6667 11.6667V21C96.6667 22.2887 97.7113 23.3333 99 23.3333H108.333C114.777 23.3333 120 18.11 120 11.6667V2.33334Z" fill="#42A5F5"/>
<path d="M66.6666 2.33334C66.6666 1.04467 67.7113 0 69 0H78.3333C84.7766 0 90 5.22334 90 11.6667V21C90 22.2887 88.9553 23.3333 87.6666 23.3333H78.3333C71.89 23.3333 66.6666 18.11 66.6666 11.6667V2.33334Z" fill="#42A5F5"/>
</svg>
