<svg width="35" height="42" viewBox="0 0 35 42" fill="none" xmlns="http://www.w3.org/2000/svg">
<path d="M22.6449 41.9998V34.8735H9.98625C8.95481 34.8735 8.34532 34.264 8.34532 33.2326V9.18115H0V35.2017C0 39.6088 2.39107 41.9998 6.79815 41.9998H22.6449Z" fill="white"/>
<path fill-rule="evenodd" clip-rule="evenodd" d="M32.6937 0C33.8265 0 34.7449 0.91834 34.7449 2.05117V10.2558C34.7449 15.92 30.1532 20.5117 24.489 20.5117H16.2844C15.1516 20.5117 14.2332 19.5933 14.2332 18.4605V10.2558C14.2332 4.5917 18.8249 0 24.4891 0H32.6937ZM24.3738 6.16541C23.3365 6.16541 22.8442 7.06206 22.8618 8.34551H19.7323C19.7323 5.42699 21.5432 3.66885 24.3738 3.66885C27.1341 3.66885 28.9801 5.23359 28.9801 7.62467C28.9801 9.31249 28.0132 10.6135 26.0089 11.6157L23.987 12.6354C23.9473 12.656 23.9067 12.6768 23.8657 12.6978C23.4534 12.9091 23.0024 13.1403 23.0024 13.4441H28.9098V16.1165H19.8905L19.873 13.7782C19.8554 12.0024 21.4729 10.7542 22.5629 10.2267L24.6199 9.22458C25.3232 8.89053 25.8506 8.34551 25.8506 7.62467C25.8506 6.7456 25.3584 6.16541 24.3738 6.16541Z" fill="#42A5F5"/>
</svg>