<svg width="250" height="250" viewBox="0 0 250 250" fill="none" xmlns="http://www.w3.org/2000/svg">
<path fill-rule="evenodd" clip-rule="evenodd" d="M19.6759 0H230.324C241.19 0 249.999 8.80919 249.999 19.6759V230.324C249.999 241.19 241.19 249.999 230.324 249.999H19.6759C8.80919 249.999 0 241.19 0 230.324V19.6759C0 8.80919 8.80919 0 19.6759 0ZM68.2402 59.1896C76.7124 39.7452 97.3142 26.5508 118.379 26.3193H122.546C136.203 26.7823 149.86 34.8841 155.647 47.3841C155.416 41.8286 155.416 36.0415 155.416 30.486C159.351 30.486 163.286 30.4603 167.221 30.4346C175.092 30.3831 182.962 30.3317 190.833 30.486V168.912C191.064 184.652 183.657 200.393 171.157 210.185C150.555 226.388 121.157 229.166 96.8512 220.37C75.5087 212.731 59.5828 191.134 61.0643 167.986H93.6105C94.9994 175.162 96.6197 183.495 103.333 188.125C118.379 199.236 143.379 194.606 152.638 177.708C155.206 171.516 154.817 164.831 154.43 158.167C154.223 154.618 154.017 151.075 154.258 147.615C148.703 160.578 133.194 164.051 120.462 165.208C105.185 164.745 89.2123 159.652 78.4716 148.31C68.0781 138.819 64.4207 126.319 62.6152 110.81C60.8096 95.3007 60.3467 75.1618 68.2402 59.1896ZM151.481 72.847C147.546 63.1248 137.36 57.3378 127.175 57.3378C116.759 57.5693 107.036 62.4304 102.638 72.3841C97.3142 83.9581 97.0827 97.384 99.166 109.652C101.712 122.847 112.36 137.199 127.175 136.041C138.749 137.199 148.009 127.939 152.638 118.217C157.962 103.634 157.036 87.1988 151.481 72.847Z" fill="white"/>
</svg>
